{"title":"Ziegfeld Follies (1946) Esher Williams,Judy Garland,Gene Kelly.a","uid":4483520,"size":732069888,"categoryP":"video","categoryS":"movies","magnet":"?xt=urn:btih:a764acec66743d36180a93cc2333b37473ca12ec&amp;dn=Ziegfeld+Follies+%281946%29+Esher+Williams%2CJudy+Garland%2CGene+Kelly.a&amp;tr=udp%3A%2F%2Ftracker.openbittorrent.com%3A80&amp;tr=udp%3A%2F%2Fopen.demonii.com%3A1337&amp;tr=udp%3A%2F%2Ftracker.coppersurfer.tk%3A6969&amp;tr=udp%3A%2F%2Fexodus.desync.com%3A6969","seeders":5,"leechers":1,"uploader":"johnefp","files":-1,"time":1225664552,"description":"The late, great impresario Florenz Ziegfeld looks down from heaven and ordains a new revue in his grand old style.\n\nIMBD\n &lt;a href=&quot;\nhttp://www.imdb.com/title/tt0039116/&quot; rel=&quot;nofollow&quot; target=&quot;_NEW&quot;&gt;\nhttp://www.imdb.com/title/tt0039116/&lt;/a&gt;\n\nSUBS\n &lt;a href=&quot;\nhttp://www.opensubtitles.org/en/search/sublanguageid-all/idmovie-21621&quot; rel=&quot;nofollow&quot; target=&quot;_NEW&quot;&gt;\nhttp://www.opensubtitles.org/en/search/sublanguageid-all/idmovie-21621&lt;/a&gt;\n\nDirectors:\nLemuel Ayers\nRoy Del Ruth\n\nFred Astaire\t ... \tHimself / Raffles in &amp;#039;This Heart of Mine&amp;#039; / Tai Long in &amp;#039;Limehouse Blues&amp;#039; / Gentleman in &amp;#039;The Babbit and the Bromide&amp;#039;\n\n\tLucille Ball\t... \tHerself in &amp;#039;Here&amp;#039;s to the Ladies&amp;#039;\n\tLucille Bremer\t... \tPrincess in &amp;#039;This Heart of Mine&amp;#039; / Moy Ling in &amp;#039;Limehouse Blues&amp;#039;\n\tFanny Brice\t... \tNorma in &amp;#039;A Sweepstakes Ticket&amp;#039;\n\n\tJudy Garland\t... \tThe Star in &amp;#039;A Great Lady Has An Interview&amp;#039;\n\tKathryn Grayson\t... \tHerself in &amp;#039;Beauty&amp;#039;\n\n\tLena Horne\t... \tHerself in &amp;#039;Love&amp;#039;\n\n\tGene Kelly\t... \tGentleman in &amp;#039;The Babbit and the Bromide\n\n   Video\n      Format : MPEG-4 Visual\n      Format profile : Simple@L3\n      Format settings, BVOP : Yes\n      Format settings, QPel : No\n      Format settings, GMC : No warppoints\n      Format settings, Matrix : Default\n      Codec ID : XVID\n      Codec ID/Hint : XviD\n      Duration : 1h 57mn\n      Bit rate : 744 Kbps\n      Width : 512 pixels\n      Height : 384 pixels\n      Display aspect ratio : 4/3\n      Frame rate : 23.976 fps\n      Resolution : 24 bits\n      Colorimetry : 4:2:0\n      Scan type : Progressive\n      Bits/(Pixel*Frame) : 0.158\n      Stream size : 626 MiB (90%)\n   Audio\n      Format : MPEG Audio\n      Format version : Version 1\n      Format profile : Layer 3\n      Codec ID : 55\n      Codec ID/Hint : MP3\n      Duration : 1h 57mn\n      Bit rate mode : Variable\n      Bit rate : 73.2 Kbps\n      Nominal bit rate : 80.0 Kbps\n      Channel(s) : 1 channel\n      Sampling rate : 48.0 KHz\n      Resolution : 16 bits\n      Stream size : 61.5 MiB (9%)\n      Alignment : Aligned on interleaves\n      Interleave, duration : 24 ms (0.58 video frame)\n      Interleave, preload duration : 241 ms\n      Writing library : LAME3.93 \n      Encoding settings : ABR\n\n    Enjoy and Seed\n","torrent":{"xt":"urn:btih:a764acec66743d36180a93cc2333b37473ca12ec","amp;dn":"Ziegfeld+Follies+%281946%29+Esher+Williams%2CJudy+Garland%2CGene+Kelly.a","amp;tr":["udp%3A%2F%2Ftracker.openbittorrent.com%3A80","udp%3A%2F%2Fopen.demonii.com%3A1337","udp%3A%2F%2Ftracker.coppersurfer.tk%3A6969","udp%3A%2F%2Fexodus.desync.com%3A6969"],"infoHash":"a764acec66743d36180a93cc2333b37473ca12ec","infoHashBuffer":{"type":"Buffer","data":[167,100,172,236,102,116,61,54,24,10,147,204,35,51,179,116,115,202,18,236]},"announce":[],"urlList":[]}}